# File created by Blade
# Date/Time:  Mon Sep 22 21:09:19 2014
# Frame Rate: 120.000 fps
#------------------------------------------------------
:FULLY-SPECIFIED
:DEGREES
3047
root 9.157901 32.133606 -9.782154 31.231271 -24.781927 -11.415546
Spine -28.463095 -10.475462 15.048310
Head 4.738452 -2.568645 -5.849896
LeftShoulder 0.315346 39.002015 28.631449
LeftArm 92.784319 25.141648 -33.601596
LeftForeArm -27.515525 0.000000 81.475747
LeftHand -28.310581 -0.000000 4.422270
LeftHandThumb1 -26.253704 0.000000 33.147579
RightShoulder -6.645531 -49.458237 -18.676226
RightArm 65.489971 -14.669665 49.049156
RightForeArm 67.198036 0.000000 76.801329
RightHand 3.360462 -0.000000 26.641275
RightHandThumb1 -24.326973 -0.000000 -32.862282
LeftUpLeg -38.919397 5.555284 -1.547982
LeftLeg 25.949080 -0.000000 -0.000000
LeftFoot -19.136492 19.055988 2.797436
LeftToeBase 3.050289 -0.000000 -0.000000
RightUpLeg -161.398379 6.153395 20.278950
RightLeg 82.400158 -0.000000 -0.000000
RightFoot 37.704864 -25.849732 13.950182
RightToeBase 48.167708 -0.000000 -0.000000
3048
root 9.175880 32.094915 -9.772211 30.863901 -24.752689 -10.893574
Spine -28.300921 -10.539311 14.700712
Head 4.623045 -2.521196 -6.201203
LeftShoulder 0.199392 39.038546 28.496534
LeftArm 92.754062 25.239457 -33.660736
LeftForeArm -27.098359 -0.000000 81.846609
LeftHand -28.626761 -0.000000 4.559808
LeftHandThumb1 -26.253704 0.000000 33.147579
RightShoulder -6.649058 -49.530500 -18.688635
RightArm 65.521992 -14.628283 49.006933
RightForeArm 67.159418 0.000000 76.890240
RightHand 3.600607 -0.000000 26.573478
RightHandThumb1 -24.326973 -0.000000 -32.862282
LeftUpLeg -38.801284 4.587004 -1.570316
LeftLeg 26.186056 -0.000000 -0.000000
LeftFoot -19.703241 17.998131 1.894336
LeftToeBase 3.066282 -0.000000 -0.000000
RightUpLeg -161.526636 6.408679 20.150770
RightLeg 81.729708 -0.000000 -0.000000
RightFoot 37.659282 -25.899654 13.847877
RightToeBase 48.375045 -0.000000 -0.000000
3049
root 9.192694 32.060582 -9.757644 30.664792 -24.809176 -10.494395
Spine -28.249455 -10.381150 14.405566
Head 4.576447 -2.513720 -6.580589
LeftShoulder 0.156194 39.195110 28.377301
LeftArm 92.767720 25.308209 -33.764131
LeftForeArm -26.718590 -0.000000 82.229621
LeftHand -28.856730 -0.000000 4.650193
LeftHandThumb1 -26.253704 0.000000 33.147579
RightShoulder -6.733565 -49.668776 -18.640923
RightArm 65.512264 -14.571091 48.978260
RightForeArm 67.413963 -0.000000 77.046274
RightHand 3.269929 -0.000000 27.218511
RightHandThumb1 -24.326973 -0.000000 -32.862282
LeftUpLeg -38.796646 3.959395 -1.665183
LeftLeg 26.377524 -0.000000 -0.000000
LeftFoot -19.874883 17.422719 1.506888
LeftToeBase 3.296470 -0.000000 -0.000000
RightUpLeg -161.687508 6.832710 20.102954
RightLeg 81.091014 -0.000000 -0.000000
RightFoot 37.655870 -25.896817 13.802692
RightToeBase 48.460635 -0.000000 -0.000000
3050
root 9.207135 32.027625 -9.741288 30.500270 -24.801938 -10.114689
Spine -28.239415 -10.273835 14.169089
Head 4.512449 -2.456900 -6.936970
LeftShoulder 0.094615 39.364612 28.253205
LeftArm 92.828596 25.377730 -33.820282
LeftForeArm -26.346444 0.000000 82.625079
LeftHand -29.116362 0.000000 4.978395
LeftHandThumb1 -26.253704 0.000000 33.147579
RightShoulder -6.896076 -49.748500 -18.507443
RightArm 65.522111 -14.512654 48.878646
RightForeArm 67.466047 0.000000 77.169873
RightHand 3.364712 0.000000 27.396036
RightHandThumb1 -24.326973 -0.000000 -32.862282
LeftUpLeg -38.817590 3.572742 -1.858499
LeftLeg 26.477742 -0.000000 -0.000000
LeftFoot -19.699324 17.160201 1.311561
LeftToeBase 3.420800 -0.000000 -0.000000
RightUpLeg -161.894938 7.222038 20.079201
RightLeg 80.541007 -0.000000 -0.000000
RightFoot 37.570262 -25.974257 14.018986
RightToeBase 48.204128 -0.000000 -0.000000
3051
root 9.214647 31.994465 -9.723607 30.303456 -24.772412 -9.770515
Spine -28.193920 -10.189572 13.953303
Head 4.496741 -2.378438 -7.282526
LeftShoulder 0.048878 39.497928 28.156444
LeftArm 92.833162 25.497138 -33.933505
LeftForeArm -25.859815 0.000000 83.034655
LeftHand -29.419663 -0.000000 5.206963
LeftHandThumb1 -26.253704 0.000000 33.147579
RightShoulder -7.074100 -49.724337 -18.361189
RightArm 65.455589 -14.479467 48.876615
RightForeArm 67.216367 -0.000000 77.268383
RightHand 3.860906 0.000000 26.713009
RightHandThumb1 -24.326973 -0.000000 -32.862282
LeftUpLeg -38.833437 3.464383 -2.133992
LeftLeg 26.610827 -0.000000 -0.000000
LeftFoot -19.340679 17.011483 1.096521
LeftToeBase 3.576167 -0.000000 -0.000000
RightUpLeg -162.072647 7.566638 20.059684
RightLeg 80.083697 -0.000000 -0.000000
RightFoot 37.532273 -25.945711 14.153885
RightToeBase 48.331227 -0.000000 -0.000000
